<svg id="Layer_1" enable-background="new 0 0 512 512" height="512" viewBox="0 0 512 512" width="512" xmlns="http://www.w3.org/2000/svg"><path d="m108.94 55c1.734 2.743 3.093 5.706 4.04 8.81 6.009 19.526-4.948 40.226-24.473 46.236s-40.226-4.948-46.236-24.473 4.948-40.226 24.473-46.236c15.989-4.921 33.291 1.501 42.196 15.663z" fill="#a5e2fb"/><path d="m378.46 359.88c11.15 20.484 3.582 46.128-16.902 57.278s-46.128 3.582-57.278-16.902-3.582-46.128 16.902-57.278c6.192-3.37 13.128-5.137 20.178-5.138 15.483-.052 29.74 8.418 37.1 22.04z" fill="#4689d3"/><circle cx="77.659" cy="74.625" fill="#a5e2fb" r="36.929"/><circle cx="50.286" cy="450.416" fill="#53d8d8" r="34.286"/><circle cx="280.306" cy="59.761" fill="#f3ce7d" r="32.462"/><circle cx="159.298" cy="252.63" fill="#5fcda4" r="22.596"/><circle cx="299.212" cy="212.16" fill="#6994fe" r="24.056"/><circle cx="469.021" cy="211.923" fill="#8f8fb7" r="26.979"/><path d="m66.731 74.625c.001-15.381 9.533-29.152 23.928-34.569-19.092-7.175-40.385 2.486-47.56 21.577s2.486 40.385 21.577 47.56c8.375 3.147 17.607 3.147 25.982 0-14.394-5.417-23.926-19.187-23.927-34.568z" fill="#85bbcc"/><path d="m42 450.416c0-13.915 8.41-26.451 21.286-31.728-17.523-7.177-37.546 1.21-44.723 18.733s1.21 37.546 18.733 44.723c8.327 3.411 17.662 3.411 25.99 0-12.876-5.277-21.286-17.813-21.286-31.728z" fill="#44aaa7"/><g fill="#284268"><path d="m79.575 207.737c.156.013.311.018.466.018 3.133-.003 5.736-2.417 5.976-5.541l.5-6.544c.254-3.304-2.219-6.188-5.523-6.442s-6.188 2.219-6.442 5.523l-.5 6.544c-.254 3.304 2.219 6.188 5.523 6.442z"/><path d="m69.476 311.207c.205.021.41.031.616.031 3.076-.004 5.65-2.332 5.962-5.392l8.113-79.575c.336-3.297-2.065-6.242-5.362-6.577-3.297-.336-6.242 2.065-6.577 5.361l-8.113 79.574c-.336 3.297 2.064 6.242 5.361 6.578-.001 0 0 0 0 0z"/><path d="m469.021 178.944c-2.885 0-5.758.38-8.545 1.129l-141.824-123.149c-1.56-21.179-19.994-37.082-41.172-35.522-16.011 1.18-29.605 12.183-34.093 27.598h-131.307c-14.144-19.018-41.027-22.969-60.045-8.825s-22.969 41.027-8.825 60.044c3.528 4.743 7.997 8.707 13.129 11.642l-26.281 303.739c-19.235 11.171-25.773 35.82-14.602 55.055s35.82 25.773 55.055 14.602c7.608-4.419 13.561-11.207 16.947-19.328l216.746-55.147c16.947 20.532 47.331 23.438 67.863 6.49 16.676-13.764 22.146-36.949 13.382-56.715l86.687-115.806c18.132-1.718 31.438-17.809 29.72-35.94-1.604-16.935-15.826-29.87-32.837-29.867zm-152.044-107.583 131.866 114.5c-6.407 4.961-10.764 12.106-12.243 20.073l-107.934.216c-2.471-11.982-11.941-21.282-23.966-23.535l-8.7-87.754c10.012-4.5 17.638-13.044 20.977-23.5zm.291 140.8c-.003 9.972-8.089 18.054-18.061 18.051s-18.054-8.089-18.051-18.061c.003-9.97 8.086-18.051 18.056-18.051 9.969.011 18.048 8.092 18.056 18.061zm-36.962-178.861c14.615-.001 26.463 11.847 26.464 26.462s-11.847 26.463-26.462 26.464-26.463-11.847-26.464-26.462v-.001c.016-14.608 11.854-26.446 26.462-26.463zm-38.431 27.7c.686 21.233 18.454 37.889 39.687 37.203.9-.029 1.799-.09 2.695-.182l8.4 84.811c-3.817.854-7.429 2.447-10.633 4.691l-162.88-126.523zm-121.375 16.248 153.22 119.017c-4.194 6.697-5.57 14.781-3.827 22.488l-85.913 19.462c-6.693-11.477-20.412-16.828-33.108-12.915l-50.487-114.28c11.765-7.349 19.257-19.927 20.115-33.772zm55.4 175.382c0 9.168-7.432 16.6-16.6 16.6s-16.6-7.432-16.6-16.6 7.432-16.6 16.6-16.6c9.164.009 16.591 7.436 16.6 16.6zm-129.17-178.005c-.001-17.082 13.846-30.929 30.928-30.93s30.929 13.846 30.93 30.928-13.846 30.929-30.928 30.93h-.001c-17.073-.019-30.909-13.855-30.929-30.928zm21.257 41.816c7.075 1.648 14.453 1.462 21.436-.54l50.945 115.321c-11.826 10.429-12.958 28.47-2.529 40.295 1.032 1.17 2.158 2.254 3.367 3.24l-76.27 138.143c-7.13-2.797-14.912-3.494-22.426-2.009zm-17.701 362.259c-15.622.001-28.286-12.663-28.287-28.285s12.663-28.286 28.285-28.287 28.286 12.663 28.287 28.285v.001c-.018 15.614-12.671 28.268-28.285 28.286zm246.887-79.34-206.673 53.379c.043-.77.071-1.543.071-2.323-.002-12.281-5.615-23.888-15.239-31.516l76.55-138.651c9.239 2.488 19.111.177 26.285-6.155l125.26 76.243c-10.968 13.938-13.372 32.783-6.254 49.028zm-111.829-134.948c1.685-3.699 2.556-7.717 2.556-11.782 0-.99-.052-1.979-.154-2.963l87.016-20.091c6.588 9.285 17.864 14.04 29.111 12.278l31.162 90.411c-8.284 1.091-16.14 4.326-22.789 9.386zm156.015 151.881c-20.009 0-36.229-16.22-36.229-36.229s16.22-36.229 36.229-36.229 36.229 16.22 36.229 36.229v.001c-.023 19.999-16.23 36.206-36.229 36.228zm37.329-66.726c-7.617-9.324-18.448-15.46-30.362-17.2l-33.214-94.716c6.997-4.371 11.896-11.419 13.555-19.5l107.934-.216c2.193 11.702 10.505 21.323 21.764 25.192zm90.333-116.667c-11.586 0-20.979-9.393-20.979-20.979s9.393-20.979 20.979-20.979 20.979 9.393 20.979 20.979v.002c-.013 11.581-9.398 20.965-20.979 20.977z"/></g></svg>